<svg width="32" height="33" viewBox="0 0 32 33" fill="none" xmlns="http://www.w3.org/2000/svg">
<path d="M9.52515 17.0257L19.0251 5.27013L27 5.24445L26.9749 13.3965L15.4749 23.1077" stroke="white" stroke-width="2" stroke-linecap="round" stroke-linejoin="round"/>
<path d="M12.5 20.0667L20 12.4" stroke="white" stroke-width="2" stroke-linecap="round" stroke-linejoin="round"/>
<path d="M10.2678 25.3639L6.52511 29.1897C6.43226 29.2846 6.32202 29.3599 6.20069 29.4113C6.07937 29.4626 5.94933 29.4891 5.81801 29.4891C5.68669 29.4891 5.55665 29.4626 5.43532 29.4113C5.314 29.3599 5.20376 29.2846 5.1109 29.1897L3.57536 27.62C3.48251 27.5251 3.40885 27.4124 3.35859 27.2884C3.30834 27.1644 3.28247 27.0314 3.28247 26.8972C3.28247 26.763 3.30834 26.63 3.35859 26.506C3.40885 26.382 3.48251 26.2693 3.57536 26.1744L7.31801 22.3486C7.41086 22.2536 7.48452 22.141 7.53478 22.0169C7.58503 21.8929 7.6109 21.76 7.6109 21.6257C7.6109 21.4915 7.58503 21.3586 7.53478 21.2346C7.48452 21.1105 7.41086 20.9978 7.31801 20.9029L4.7071 18.234C4.51956 18.0423 4.4142 17.7823 4.4142 17.5112C4.4142 17.2401 4.51956 16.9801 4.7071 16.7883L6.29288 15.1673C6.48042 14.9756 6.73477 14.8679 6.99999 14.8679C7.26521 14.8679 7.51956 14.9756 7.7071 15.1673L17.2929 24.9661C17.4804 25.1578 17.5858 25.4178 17.5858 25.6889C17.5858 25.9601 17.4804 26.2201 17.2929 26.4118L15.7071 28.0328C15.5196 28.2245 15.2652 28.3322 15 28.3322C14.7348 28.3322 14.4804 28.2245 14.2929 28.0328L11.682 25.3639C11.4944 25.1722 11.2401 25.0645 10.9749 25.0645C10.7096 25.0645 10.4553 25.1722 10.2678 25.3639V25.3639Z" stroke="white" stroke-width="2" stroke-linecap="round" stroke-linejoin="round"/>
</svg>
